<?xml version="1.0" encoding="UTF-8"?>
<svg version="1.1" xmlns="http://www.w3.org/2000/svg" width="40" height="40">
<path d="M0 0 C6.6 0 13.2 0 20 0 C20.495 1.485 20.495 1.485 21 3 C23.475 3.495 23.475 3.495 26 4 C25.67 5.65 25.34 7.3 25 9 C23.02 9.66 21.04 10.32 19 11 C19.66 11.66 20.32 12.32 21 13 C21 13.99 21 14.98 21 16 C19.35 16.66 17.7 17.32 16 18 C16 18.99 16 19.98 16 21 C14.35 20.67 12.7 20.34 11 20 C11 20.66 11 21.32 11 22 C8.61435923 21.42415568 6.33317216 20.77772405 4 20 C4 20.66 4 21.32 4 22 C3.34 22 2.68 22 2 22 C2 21.34 2 20.68 2 20 C1.34 20.66 0.68 21.32 0 22 C-5.29576664 21.74782064 -9.44236418 19.48703477 -14 17 C-12.625 15.5 -12.625 15.5 -11 14 C-10.34 14 -9.68 14 -9 14 C-9 13.34 -9 12.68 -9 12 C-11.475 11.01 -11.475 11.01 -14 10 C-14 9.67 -14 9.34 -14 9 C-12.35 8.67 -10.7 8.34 -9 8 C-9.66 7.34 -10.32 6.68 -11 6 C-10.01 5.34 -9.02 4.68 -8 4 C-9.32 3.01 -10.64 2.02 -12 1 C-8.04 1 -4.08 1 0 1 C0 0.67 0 0.34 0 0 Z M-8 17 C-8 17.66 -8 18.32 -8 19 C-6.35 19 -4.7 19 -3 19 C-3.66 18.34 -4.32 17.68 -5 17 C-5.99 17 -6.98 17 -8 17 Z " fill="#963578" transform="translate(14,8)"/>
<path d="M0 0 C2.79192205 -0.05380578 5.5828141 -0.09357669 8.375 -0.125 C9.1690625 -0.14175781 9.963125 -0.15851562 10.78125 -0.17578125 C12.85492015 -0.19335473 14.92883241 -0.10335168 17 0 C17.66 0.66 18.32 1.32 19 2 C18.50628906 2.33773438 18.01257813 2.67546875 17.50390625 3.0234375 C16.54291016 3.69246094 16.54291016 3.69246094 15.5625 4.375 C14.92441406 4.81585937 14.28632813 5.25671875 13.62890625 5.7109375 C11.86259072 6.92160853 11.86259072 6.92160853 11 9 C11.66 9 12.32 9 13 9 C12.6875 10.9375 12.6875 10.9375 12 13 C11.01 13.33 10.02 13.66 9 14 C9 14.99 9 15.98 9 17 C7.35 16.67 5.7 16.34 4 16 C4 16.66 4 17.32 4 18 C1.13275314 17.42655063 0.1385485 17.1385485 -2 15 C-0.35 14.34 1.3 13.68 3 13 C3 12.34 3 11.68 3 11 C0.525 10.01 0.525 10.01 -2 9 C-2 8.67 -2 8.34 -2 8 C-0.35 7.67 1.3 7.34 3 7 C2.34 6.34 1.68 5.68 1 5 C1.99 4.34 2.98 3.68 4 3 C2.68 2.01 1.36 1.02 0 0 Z " fill="#069FA6" transform="translate(2,9)"/>
<path d="M0 0 C1.67542976 0.28604898 3.34385343 0.61781233 5 1 C4.67 2.65 4.34 4.3 4 6 C2.02 6.66 0.04 7.32 -2 8 C-1.34 8.66 -0.68 9.32 0 10 C0 10.99 0 11.98 0 13 C-1.65 13.66 -3.3 14.32 -5 15 C-5 15.99 -5 16.98 -5 18 C-6.65 17.67 -8.3 17.34 -10 17 C-10 17.66 -10 18.32 -10 19 C-12.38564077 18.42415568 -14.66682784 17.77772405 -17 17 C-17 16.34 -17 15.68 -17 15 C-16.195625 14.71125 -15.39125 14.4225 -14.5625 14.125 C-11.8673532 13.26737432 -11.8673532 13.26737432 -11 11 C-10.34 11 -9.68 11 -9 11 C-9 10.34 -9 9.68 -9 9 C-9.99 8.67 -10.98 8.34 -12 8 C-11.01 7.67 -10.02 7.34 -9 7 C-9.66 6.67 -10.32 6.34 -11 6 C-11 5.01 -11 4.02 -11 3 C-7.57910017 0.89483087 -4.95715833 0.91206315 -1 1 C-0.67 0.67 -0.34 0.34 0 0 Z " fill="#04A4A6" transform="translate(35,11)"/>
<path d="M0 0 C6.6 0 13.2 0 20 0 C20 1.32 20 2.64 20 4 C16.72143806 5.09285398 15.54699222 4.89911789 12.25 4.1875 C11.37085938 3.99800781 10.49171875 3.80851563 9.5859375 3.61328125 C6.35197335 2.84631392 3.17945769 1.96766103 0 1 C0 0.67 0 0.34 0 0 Z " fill="#F3C812" transform="translate(14,8)"/>
<path d="M0 0 C1.65 0 3.3 0 5 0 C4.01 0.495 4.01 0.495 3 1 C3 1.99 3 2.98 3 4 C3.99 4.33 4.98 4.66 6 5 C5.01 5.33 4.02 5.66 3 6 C3.66 6.66 4.32 7.32 5 8 C3.68 9.32 2.36 10.64 1 12 C0.67 11.01 0.34 10.02 0 9 C-1.32 9.33 -2.64 9.66 -4 10 C-3.525625 9.46375 -3.05125 8.9275 -2.5625 8.375 C-0.71813924 5.57157164 -0.37543153 3.30379742 0 0 Z " fill="#DDB525" transform="translate(21,13)"/>
<path d="M0 0 C0.33 1.65 0.66 3.3 1 5 C0.34 5 -0.32 5 -1 5 C-1 4.34 -1 3.68 -1 3 C-1.66 3.66 -2.32 4.32 -3 5 C-6.80909895 4.67582137 -8.78372163 4.14418558 -12 2 C-10.02 2 -8.04 2 -6 2 C-6 1.34 -6 0.68 -6 0 C-3.50907189 -1.24546405 -2.58919267 -0.7767578 0 0 Z " fill="#922580" transform="translate(17,25)"/>
<path d="M0 0 C1.52519276 0.08937803 3.04681929 0.24537146 4.5625 0.4375 C5.38878906 0.53933594 6.21507812 0.64117187 7.06640625 0.74609375 C7.70449219 0.82988281 8.34257812 0.91367188 9 1 C8.34 1.66 7.68 2.32 7 3 C4.375 2.625 4.375 2.625 2 2 C2 3.98 2 5.96 2 8 C0.02 7.34 -1.96 6.68 -4 6 C-4 5.67 -4 5.34 -4 5 C-2.35 5 -0.7 5 1 5 C1 4.01 1 3.02 1 2 C0.34 1.67 -0.32 1.34 -1 1 C-0.67 0.67 -0.34 0.34 0 0 Z " fill="#A9924E" transform="translate(19,11)"/>
<path d="M0 0 C1.65 0 3.3 0 5 0 C4.01 0.495 4.01 0.495 3 1 C3 1.99 3 2.98 3 4 C3.99 4.33 4.98 4.66 6 5 C3 6 3 6 0 6 C0 4.02 0 2.04 0 0 Z " fill="#EEC615" transform="translate(21,13)"/>
<path d="M0 0 C0.33 0.99 0.66 1.98 1 3 C-3.29299643 4.26264601 -5.87831311 3.62950412 -10 2 C-10 1.67 -10 1.34 -10 1 C-2.25 0 -2.25 0 0 0 Z " fill="#BE6D4F" transform="translate(21,22)"/>
<path d="M0 0 C0 0.66 0 1.32 0 2 C-3 4 -3 4 -7 4 C-7 3.01 -7 2.02 -7 1 C-3.375 -1.125 -3.375 -1.125 0 0 Z " fill="#4C8E85" transform="translate(31,13)"/>
<path d="M0 0 C1.32 0 2.64 0 4 0 C4 0.99 4 1.98 4 3 C2.35 3 0.7 3 -1 3 C-1 3.66 -1 4.32 -1 5 C-1.66 5 -2.32 5 -3 5 C-1.125 1.125 -1.125 1.125 0 0 Z " fill="#8A407B" transform="translate(16,13)"/>
</svg>
